<?xml version="1.0" encoding="UTF-8"?>
<svg xmlns="http://www.w3.org/2000/svg" xmlns:xlink="http://www.w3.org/1999/xlink" width="432" height="432" viewBox="0 0 432 432">
<defs>
<g>
<g id="glyph-0-0">
<path d="M 3.40625 -3.75 L 0.546875 -3.75 L 0.546875 -2.875 L 3.40625 -2.875 Z M 3.40625 -3.75 "/>
</g>
<g id="glyph-0-1">
<path d="M 3.296875 -8.671875 C 2.515625 -8.671875 1.78125 -8.3125 1.34375 -7.734375 C 0.796875 -6.953125 0.515625 -5.8125 0.515625 -4.203125 C 0.515625 -1.265625 1.46875 0.28125 3.296875 0.28125 C 5.09375 0.28125 6.078125 -1.265625 6.078125 -4.125 C 6.078125 -5.8125 5.8125 -6.9375 5.25 -7.734375 C 4.8125 -8.328125 4.109375 -8.671875 3.296875 -8.671875 Z M 3.296875 -7.734375 C 4.4375 -7.734375 5 -6.578125 5 -4.21875 C 5 -1.75 4.453125 -0.59375 3.28125 -0.59375 C 2.15625 -0.59375 1.59375 -1.796875 1.59375 -4.1875 C 1.59375 -6.578125 2.15625 -7.734375 3.296875 -7.734375 Z M 3.296875 -7.734375 "/>
</g>
<g id="glyph-0-2">
<path d="M 2.296875 -1.25 L 1.046875 -1.25 L 1.046875 0 L 2.296875 0 Z M 2.296875 -1.25 "/>
</g>
<g id="glyph-0-3">
<path d="M 6.078125 -1.046875 L 1.59375 -1.046875 C 1.703125 -1.765625 2.09375 -2.21875 3.125 -2.859375 L 4.328125 -3.53125 C 5.515625 -4.1875 6.125 -5.078125 6.125 -6.140625 C 6.125 -6.859375 5.84375 -7.53125 5.34375 -8 C 4.84375 -8.453125 4.21875 -8.671875 3.40625 -8.671875 C 2.328125 -8.671875 1.53125 -8.296875 1.0625 -7.546875 C 0.75 -7.09375 0.625 -6.546875 0.59375 -5.671875 L 1.65625 -5.671875 C 1.6875 -6.265625 1.765625 -6.609375 1.90625 -6.90625 C 2.1875 -7.421875 2.734375 -7.75 3.375 -7.75 C 4.328125 -7.75 5.046875 -7.0625 5.046875 -6.125 C 5.046875 -5.421875 4.65625 -4.828125 3.90625 -4.390625 L 2.796875 -3.75 C 1.015625 -2.71875 0.5 -1.90625 0.40625 -0.015625 L 6.078125 -0.015625 Z M 6.078125 -1.046875 "/>
</g>
<g id="glyph-0-4">
<path d="M 3.921875 -2.09375 L 3.921875 0 L 4.984375 0 L 4.984375 -2.09375 L 6.234375 -2.09375 L 6.234375 -3.046875 L 4.984375 -3.046875 L 4.984375 -8.671875 L 4.203125 -8.671875 L 0.34375 -3.21875 L 0.34375 -2.09375 Z M 3.921875 -3.046875 L 1.265625 -3.046875 L 3.921875 -6.875 Z M 3.921875 -3.046875 "/>
</g>
<g id="glyph-0-5">
<path d="M 5.96875 -6.421875 C 5.765625 -7.84375 4.859375 -8.671875 3.5625 -8.671875 C 2.625 -8.671875 1.78125 -8.21875 1.28125 -7.4375 C 0.75 -6.59375 0.515625 -5.53125 0.515625 -3.953125 C 0.515625 -2.5 0.71875 -1.578125 1.234375 -0.796875 C 1.6875 -0.09375 2.4375 0.28125 3.375 0.28125 C 4.984375 0.28125 6.15625 -0.9375 6.15625 -2.625 C 6.15625 -4.21875 5.078125 -5.359375 3.546875 -5.359375 C 2.71875 -5.359375 2.046875 -5.046875 1.59375 -4.40625 C 1.609375 -6.546875 2.28125 -7.734375 3.484375 -7.734375 C 4.234375 -7.734375 4.75 -7.265625 4.921875 -6.421875 Z M 3.421875 -4.421875 C 4.4375 -4.421875 5.078125 -3.703125 5.078125 -2.546875 C 5.078125 -1.453125 4.359375 -0.65625 3.390625 -0.65625 C 2.40625 -0.65625 1.65625 -1.484375 1.65625 -2.59375 C 1.65625 -3.671875 2.375 -4.421875 3.421875 -4.421875 Z M 3.421875 -4.421875 "/>
</g>
<g id="glyph-0-6">
<path d="M 4.6875 -4.578125 C 5.578125 -5.109375 5.859375 -5.546875 5.859375 -6.359375 C 5.859375 -7.734375 4.8125 -8.671875 3.296875 -8.671875 C 1.796875 -8.671875 0.75 -7.734375 0.75 -6.375 C 0.75 -5.546875 1.015625 -5.125 1.890625 -4.578125 C 0.921875 -4.078125 0.4375 -3.375 0.4375 -2.40625 C 0.4375 -0.828125 1.609375 0.28125 3.296875 0.28125 C 4.984375 0.28125 6.15625 -0.828125 6.15625 -2.40625 C 6.15625 -3.375 5.671875 -4.078125 4.6875 -4.578125 Z M 3.296875 -7.734375 C 4.203125 -7.734375 4.78125 -7.203125 4.78125 -6.34375 C 4.78125 -5.515625 4.1875 -4.984375 3.296875 -4.984375 C 2.40625 -4.984375 1.828125 -5.515625 1.828125 -6.359375 C 1.828125 -7.203125 2.40625 -7.734375 3.296875 -7.734375 Z M 3.296875 -4.09375 C 4.359375 -4.09375 5.078125 -3.390625 5.078125 -2.390625 C 5.078125 -1.34375 4.375 -0.65625 3.28125 -0.65625 C 2.25 -0.65625 1.53125 -1.375 1.53125 -2.375 C 1.53125 -3.40625 2.234375 -4.09375 3.296875 -4.09375 Z M 3.296875 -4.09375 "/>
</g>
<g id="glyph-0-7">
<path d="M 3.109375 -6.1875 L 3.109375 0 L 4.15625 0 L 4.15625 -8.671875 L 3.46875 -8.671875 C 3.09375 -7.34375 2.859375 -7.15625 1.21875 -6.953125 L 1.21875 -6.1875 Z M 3.109375 -6.1875 "/>
</g>
</g>
</defs>
<rect x="-43.2" y="-43.2" width="518.4" height="518.4" fill="rgb(100%, 100%, 100%)" fill-opacity="1"/>
<path fill="none" stroke-width="0.75" stroke-linecap="round" stroke-linejoin="round" stroke="rgb(0%, 0%, 0%)" stroke-opacity="1" stroke-miterlimit="10" d="M 53.261719 374.507812 C 53.261719 378.105469 47.859375 378.105469 47.859375 374.507812 C 47.859375 370.90625 53.261719 370.90625 53.261719 374.507812 "/>
<path fill="none" stroke-width="0.75" stroke-linecap="round" stroke-linejoin="round" stroke="rgb(0%, 0%, 0%)" stroke-opacity="1" stroke-miterlimit="10" d="M 279.292969 237.726562 C 279.292969 241.324219 273.890625 241.324219 273.890625 237.726562 C 273.890625 234.125 279.292969 234.125 279.292969 237.726562 "/>
<path fill="none" stroke-width="0.75" stroke-linecap="round" stroke-linejoin="round" stroke="rgb(0%, 0%, 0%)" stroke-opacity="1" stroke-miterlimit="10" d="M 417.261719 201.28125 C 417.261719 204.882812 411.859375 204.882812 411.859375 201.28125 C 411.859375 197.683594 417.261719 197.683594 417.261719 201.28125 "/>
<path fill="none" stroke-width="0.75" stroke-linecap="round" stroke-linejoin="round" stroke="rgb(0%, 0%, 0%)" stroke-opacity="1" stroke-miterlimit="10" d="M 220.582031 374.507812 C 220.582031 378.105469 215.183594 378.105469 215.183594 374.507812 C 215.183594 370.90625 220.582031 370.90625 220.582031 374.507812 "/>
<path fill="none" stroke-width="0.75" stroke-linecap="round" stroke-linejoin="round" stroke="rgb(0%, 0%, 0%)" stroke-opacity="1" stroke-miterlimit="10" d="M 79.679688 329.542969 C 79.679688 333.144531 74.28125 333.144531 74.28125 329.542969 C 74.28125 325.945312 79.679688 325.945312 79.679688 329.542969 "/>
<path fill="none" stroke-width="0.75" stroke-linecap="round" stroke-linejoin="round" stroke="rgb(0%, 0%, 0%)" stroke-opacity="1" stroke-miterlimit="10" d="M 205.90625 17.171875 C 205.90625 20.773438 200.503906 20.773438 200.503906 17.171875 C 200.503906 13.574219 205.90625 13.574219 205.90625 17.171875 "/>
<path fill="none" stroke-width="0.75" stroke-linecap="round" stroke-linejoin="round" stroke="rgb(0%, 0%, 0%)" stroke-opacity="1" stroke-miterlimit="10" d="M 126.648438 315.34375 C 126.648438 318.945312 121.246094 318.945312 121.246094 315.34375 C 121.246094 311.746094 126.648438 311.746094 126.648438 315.34375 "/>
<path fill="none" stroke-width="0.75" stroke-linecap="round" stroke-linejoin="round" stroke="rgb(0%, 0%, 0%)" stroke-opacity="1" stroke-miterlimit="10" d="M 120.777344 329.542969 C 120.777344 333.144531 115.375 333.144531 115.375 329.542969 C 115.375 325.945312 120.777344 325.945312 120.777344 329.542969 "/>
<path fill="none" stroke-width="0.75" stroke-linecap="round" stroke-linejoin="round" stroke="rgb(0%, 0%, 0%)" stroke-opacity="1" stroke-miterlimit="10" d="M 144.261719 362.675781 C 144.261719 366.273438 138.859375 366.273438 138.859375 362.675781 C 138.859375 359.074219 144.261719 359.074219 144.261719 362.675781 "/>
<path fill="none" stroke-width="0.75" stroke-linecap="round" stroke-linejoin="round" stroke="rgb(0%, 0%, 0%)" stroke-opacity="1" stroke-miterlimit="10" d="M 232.324219 374.507812 C 232.324219 378.105469 226.925781 378.105469 226.925781 374.507812 C 226.925781 370.90625 232.324219 370.90625 232.324219 374.507812 "/>
<path fill="none" stroke-width="0.75" stroke-linecap="round" stroke-linejoin="round" stroke="rgb(0%, 0%, 0%)" stroke-opacity="1" stroke-miterlimit="10" d="M 88.722656 388.800781 L 382.269531 388.800781 "/>
<path fill="none" stroke-width="0.75" stroke-linecap="round" stroke-linejoin="round" stroke="rgb(0%, 0%, 0%)" stroke-opacity="1" stroke-miterlimit="10" d="M 88.722656 388.800781 L 88.722656 396 "/>
<path fill="none" stroke-width="0.75" stroke-linecap="round" stroke-linejoin="round" stroke="rgb(0%, 0%, 0%)" stroke-opacity="1" stroke-miterlimit="10" d="M 147.429688 388.800781 L 147.429688 396 "/>
<path fill="none" stroke-width="0.75" stroke-linecap="round" stroke-linejoin="round" stroke="rgb(0%, 0%, 0%)" stroke-opacity="1" stroke-miterlimit="10" d="M 206.140625 388.800781 L 206.140625 396 "/>
<path fill="none" stroke-width="0.75" stroke-linecap="round" stroke-linejoin="round" stroke="rgb(0%, 0%, 0%)" stroke-opacity="1" stroke-miterlimit="10" d="M 264.851562 388.800781 L 264.851562 396 "/>
<path fill="none" stroke-width="0.75" stroke-linecap="round" stroke-linejoin="round" stroke="rgb(0%, 0%, 0%)" stroke-opacity="1" stroke-miterlimit="10" d="M 323.558594 388.800781 L 323.558594 396 "/>
<path fill="none" stroke-width="0.75" stroke-linecap="round" stroke-linejoin="round" stroke="rgb(0%, 0%, 0%)" stroke-opacity="1" stroke-miterlimit="10" d="M 382.269531 388.800781 L 382.269531 396 "/>
<g fill="rgb(0%, 0%, 0%)" fill-opacity="1">
<use xlink:href="#glyph-0-0" x="78.222656" y="414.466797"/>
<use xlink:href="#glyph-0-1" x="82.222656" y="414.466797"/>
<use xlink:href="#glyph-0-2" x="89.222656" y="414.466797"/>
<use xlink:href="#glyph-0-3" x="92.222656" y="414.466797"/>
</g>
<g fill="rgb(0%, 0%, 0%)" fill-opacity="1">
<use xlink:href="#glyph-0-1" x="138.929688" y="414.466797"/>
<use xlink:href="#glyph-0-2" x="145.929688" y="414.466797"/>
<use xlink:href="#glyph-0-1" x="148.929688" y="414.466797"/>
</g>
<g fill="rgb(0%, 0%, 0%)" fill-opacity="1">
<use xlink:href="#glyph-0-1" x="197.640625" y="414.466797"/>
<use xlink:href="#glyph-0-2" x="204.640625" y="414.466797"/>
<use xlink:href="#glyph-0-3" x="207.640625" y="414.466797"/>
</g>
<g fill="rgb(0%, 0%, 0%)" fill-opacity="1">
<use xlink:href="#glyph-0-1" x="256.351562" y="414.466797"/>
<use xlink:href="#glyph-0-2" x="263.351562" y="414.466797"/>
<use xlink:href="#glyph-0-4" x="266.351562" y="414.466797"/>
</g>
<g fill="rgb(0%, 0%, 0%)" fill-opacity="1">
<use xlink:href="#glyph-0-1" x="315.058594" y="414.466797"/>
<use xlink:href="#glyph-0-2" x="322.058594" y="414.466797"/>
<use xlink:href="#glyph-0-5" x="325.058594" y="414.466797"/>
</g>
<g fill="rgb(0%, 0%, 0%)" fill-opacity="1">
<use xlink:href="#glyph-0-1" x="373.769531" y="414.466797"/>
<use xlink:href="#glyph-0-2" x="380.769531" y="414.466797"/>
<use xlink:href="#glyph-0-6" x="383.769531" y="414.466797"/>
</g>
<path fill="none" stroke-width="0.75" stroke-linecap="round" stroke-linejoin="round" stroke="rgb(0%, 0%, 0%)" stroke-opacity="1" stroke-miterlimit="10" d="M 36 315.34375 L 36 31.371094 "/>
<path fill="none" stroke-width="0.75" stroke-linecap="round" stroke-linejoin="round" stroke="rgb(0%, 0%, 0%)" stroke-opacity="1" stroke-miterlimit="10" d="M 36 315.34375 L 28.800781 315.34375 "/>
<path fill="none" stroke-width="0.75" stroke-linecap="round" stroke-linejoin="round" stroke="rgb(0%, 0%, 0%)" stroke-opacity="1" stroke-miterlimit="10" d="M 36 220.6875 L 28.800781 220.6875 "/>
<path fill="none" stroke-width="0.75" stroke-linecap="round" stroke-linejoin="round" stroke="rgb(0%, 0%, 0%)" stroke-opacity="1" stroke-miterlimit="10" d="M 36 126.03125 L 28.800781 126.03125 "/>
<path fill="none" stroke-width="0.75" stroke-linecap="round" stroke-linejoin="round" stroke="rgb(0%, 0%, 0%)" stroke-opacity="1" stroke-miterlimit="10" d="M 36 31.371094 L 28.800781 31.371094 "/>
<g fill="rgb(0%, 0%, 0%)" fill-opacity="1">
<use xlink:href="#glyph-0-1" x="4.601562" y="319.591797"/>
<use xlink:href="#glyph-0-2" x="11.601562" y="319.591797"/>
<use xlink:href="#glyph-0-4" x="14.601562" y="319.591797"/>
</g>
<g fill="rgb(0%, 0%, 0%)" fill-opacity="1">
<use xlink:href="#glyph-0-1" x="4.601562" y="224.935547"/>
<use xlink:href="#glyph-0-2" x="11.601562" y="224.935547"/>
<use xlink:href="#glyph-0-5" x="14.601562" y="224.935547"/>
</g>
<g fill="rgb(0%, 0%, 0%)" fill-opacity="1">
<use xlink:href="#glyph-0-1" x="4.601562" y="130.279297"/>
<use xlink:href="#glyph-0-2" x="11.601562" y="130.279297"/>
<use xlink:href="#glyph-0-6" x="14.601562" y="130.279297"/>
</g>
<g fill="rgb(0%, 0%, 0%)" fill-opacity="1">
<use xlink:href="#glyph-0-7" x="4.601562" y="35.619141"/>
<use xlink:href="#glyph-0-2" x="11.601562" y="35.619141"/>
<use xlink:href="#glyph-0-1" x="14.601562" y="35.619141"/>
</g>
<path fill="none" stroke-width="0.75" stroke-linecap="round" stroke-linejoin="round" stroke="rgb(0%, 0%, 0%)" stroke-opacity="1" stroke-miterlimit="10" d="M 36 388.800781 L 429.121094 388.800781 L 429.121094 2.878906 L 36 2.878906 Z M 36 388.800781 "/>
</svg>
